<?xml version="1.0" encoding="UTF-8"?>
<svg id="Calque_1" data-name="Calque 1" xmlns="http://www.w3.org/2000/svg" viewBox="0 0 777.63 765.65">
  <defs>
    <style>
      .cls-1, .cls-2 {
        fill: #0066b2;
      }

      .cls-3 {
        fill: none;
      }

      .cls-3, .cls-2 {
        stroke: #0066b2;
        stroke-miterlimit: 10;
      }

      .cls-4 {
        fill: #0067b2;
      }
    </style>
  </defs>
  <g>
    <path class="cls-1" d="M716.94,569.44H54.75c-8.91,0-16.13,7.22-16.13,16.13v163.95c0,8.91,7.22,16.13,16.13,16.13h662.19c12.6,0,22.81-10.21,22.81-22.81v-150.59c0-12.6-10.21-22.81-22.81-22.81ZM132.52,735.12h-56.41v-132.64h69.18c15.26,0,27.62,12.36,27.62,27.61s-11.45,28.91-26.51,31.5h1.51c15.69,0,28.74,12.45,29.06,28.14.51,24.98-19.59,45.4-44.46,45.4ZM274.36,733.24s-4.27-33.9-16.66-48.09c-1.78-2.05-4.4-3.17-7.09-3.17h-13.4l-1.36,51.11-30.24.28v-130.89s47.97-7.5,72.39,0c24.42,7.5,24.42,25.82,25.29,34.1.88,8.29-4.5,28.05-22.38,34.01,0,0,13.81,7.99,18.46,28.34s5.82,34.31,5.82,34.31h-30.82ZM418.55,624.96h-54.17v26.74h49.23v26.45h-49.23v30.24h54.17v24.99h-85.18v-134.23h85.18v25.82ZM530.75,733.37l-12.21-33.13h-36.63l-9.59,33.13h-33.72l41.28-132.55h41.28l43.03,132.55h-33.44ZM661.86,733.37l-31.11-56.09-9.89,12.49v43.6h-31.97v-132.55h31.69v56.11l36.91-56.11h41.28l-45.93,57.84,48.25,74.71h-39.23Z"/>
    <path class="cls-2" d="M140.61,637.31c.32,4.59-1.41,8.78-4.37,11.74-2.73,2.73-6.48,4.41-10.65,4.41h-18.52v-30.13h18.07c7.98,0,14.92,6.02,15.47,13.98Z"/>
    <path class="cls-2" d="M144.43,692.69c0,4.82-1.95,9.17-5.11,12.33-3.16,3.15-7.52,5.1-12.33,5.1h-19.91v-34.88h19.91c9.63,0,17.45,7.8,17.45,17.45Z"/>
    <path class="cls-3" d="M204.25,733.39h1.36s0,1.74,0,1.74"/>
    <path class="cls-2" d="M272.32,640.54c-.02,10.24-8.95,18.61-19.19,18.61h-17.33v-37.28h17.88c5.15,0,9.81,2.09,13.19,5.45,3.37,3.38,5.46,8.05,5.45,13.22Z"/>
    <polygon class="cls-2" points="514.77 674.66 486.56 674.66 500.66 624.66 514.77 674.66"/>
  </g>
  <path class="cls-4" d="M777.63,324.5v37.27c-25.58,32.16-65.78,97.94-94.28,145.44l-38.73,13.16c-48.23-89.9-108.89-187.83-185.64-187.83-18.27,0-32.89,7.31-32.89,24.11,0,32.89,105.25,37.28,105.25,104.52,0,30.69-33.62,59.2-78.2,59.2-59.2,0-71.63-34.35-124.98-34.35h-112.55l22.66-33.61h90.63c-12.43-10.23-21.93-21.93-37.28-43.86-15.35-22.66-25.58-38.01-33.62-51.16-74.55,137.4-103.05,162.98-157.14,162.98S0,475.06,0,406.36c0-63.59,44.59-108.9,106.7-108.9,20.46,0,51.89,9.5,75.28,36.54l-27.05,27.05c-12.42-17.54-30.69-28.51-51.89-28.51-33.62,0-59.94,32.16-59.94,75.28s24.85,77.47,63.59,77.47c48.23,0,81.86-81.13,134.48-167.36l38.74-13.16c48.23,89.9,100.86,181.25,172.48,181.25,21.2,0,35.82-9.5,35.82-25.58,0-33.62-105.25-41.66-105.25-102.32,0-37.28,35.81-60.66,76.74-60.66,99.4,0,152.75,81.86,173.22,111.82,15.35,22.66,25.58,43.85,34.35,59.21,27.05-47.51,51.16-83.32,67.97-108.9h-114.01l27.04-35.08h129.36ZM66.51,219.25l-19.73-13.89C100.13,105.24,216.33,0,389.55,0s288.69,105.24,342.05,205.37l-19.74,13.89c-59.2-97.2-176.13-185.64-322.31-185.64S125.71,122.05,66.51,219.25"/>
</svg>