<?xml version="1.0" encoding="UTF-8"?>
<svg id="Calque_1" data-name="Calque 1" xmlns="http://www.w3.org/2000/svg" viewBox="0 0 987.58 881.36">
  <defs>
    <style>
      .cls-1 {
        fill: #00a346;
      }

      .cls-2 {
        fill: #c10000;
      }
    </style>
  </defs>
  <path class="cls-2" d="M0,432.45c1.07-3.63,3.45-5.27,6.74-6.73l-6.74,6.73Z"/>
  <g>
    <path class="cls-1" d="M917.71,655.5H155.44c-10.25,0-18.57,8.31-18.57,18.57v188.73c0,10.25,8.31,18.57,18.57,18.57h762.27c14.5,0,26.26-11.76,26.26-26.26v-173.35c0-14.5-11.76-26.26-26.26-26.26ZM244.97,846.23h-64.93v-152.69h79.64c17.57,0,31.79,14.23,31.79,31.78s-13.18,33.28-30.51,36.26h1.73c18.06,0,33.08,14.33,33.45,32.39.59,28.76-22.56,52.26-51.18,52.26ZM408.24,844.06s-4.92-39.02-19.18-55.36c-2.05-2.36-5.06-3.65-8.17-3.65h-15.43l-1.56,58.84-34.81.33v-150.68s55.22-8.64,83.33,0c28.11,8.64,28.11,29.72,29.11,39.26,1.01,9.54-5.18,32.29-25.77,39.15,0,0,15.9,9.2,21.25,32.62,5.36,23.42,6.7,39.49,6.7,39.49h-35.48ZM574.22,719.41h-62.35v30.78h56.67v30.45h-56.67v34.81h62.35v28.76h-98.05v-154.52h98.05v29.72ZM703.38,844.21l-14.05-38.13h-42.16l-11.04,38.13h-38.82l47.52-152.58h47.52l49.53,152.58h-38.49ZM854.31,844.21l-35.81-64.57-11.38,14.38v50.19h-36.81v-152.58h36.48v64.59l42.49-64.59h47.52l-52.87,66.59,55.54,86h-45.16Z"/>
    <path class="cls-1" d="M254.28,733.63c.36,5.28-1.63,10.1-5.03,13.51-3.14,3.14-7.46,5.08-12.26,5.08h-21.32v-34.68h20.8c9.19,0,17.17,6.93,17.81,16.1Z"/>
    <path class="cls-1" d="M258.68,797.38c0,5.54-2.25,10.56-5.89,14.19-3.64,3.62-8.65,5.87-14.19,5.87h-22.92v-40.15h22.92c11.09,0,20.08,8.98,20.08,20.08Z"/>
    <path class="cls-1" d="M327.54,844.23l1.56-.02v2.01"/>
    <path class="cls-1" d="M405.9,737.34c-.02,11.79-10.3,21.42-22.09,21.42h-19.95v-42.91h20.58c5.93,0,11.29,2.4,15.18,6.28,3.88,3.9,6.29,9.27,6.28,15.21Z"/>
    <polygon class="cls-1" points="684.98 776.63 652.52 776.63 668.74 719.07 684.98 776.63"/>
  </g>
  <path class="cls-2" d="M987.58,373.54v42.9c-29.44,37.02-75.72,112.74-108.53,167.42l-44.59,15.14c-55.52-103.48-125.35-216.22-213.7-216.22-21.03,0-37.86,8.41-37.86,27.76,0,37.86,121.15,42.91,121.15,120.32,0,35.33-38.7,68.14-90.02,68.14-68.15,0-82.45-39.54-143.87-39.54h-129.56l26.08-38.69h104.32c-14.3-11.78-25.24-25.24-42.91-50.48-17.66-26.08-29.44-43.75-38.7-58.89-85.81,158.16-118.63,187.61-180.88,187.61s-116.1-52.16-116.1-131.25c0-73.2,51.32-125.36,122.83-125.36,23.55,0,59.73,10.94,86.66,42.06l-31.13,31.13c-14.29-20.19-35.33-32.81-59.73-32.81-38.7,0-68.99,37.02-68.99,86.66s28.61,89.18,73.2,89.18c55.52,0,94.23-93.39,154.8-192.66l44.59-15.14c55.52,103.48,116.1,208.64,198.55,208.64,24.4,0,41.23-10.93,41.23-29.44,0-38.7-121.15-47.95-121.15-117.78,0-42.91,41.22-69.83,88.34-69.83,114.42,0,175.84,94.23,199.39,128.72,17.66,26.08,29.44,50.48,39.54,68.15,31.13-54.69,58.89-95.92,78.24-125.36h-131.24l31.12-40.38h148.92ZM168.98,252.39l-22.71-15.98C207.68,121.15,341.45,0,540.84,0s332.32,121.15,393.74,236.41l-22.72,15.98c-68.14-111.89-202.75-213.69-371.02-213.69S237.12,140.5,168.98,252.39"/>
</svg>