<?xml version="1.0" encoding="UTF-8"?>
<svg id="Calque_1" xmlns="http://www.w3.org/2000/svg" version="1.1" viewBox="0 0 274 184">
  <!-- Generator: Adobe Illustrator 29.8.2, SVG Export Plug-In . SVG Version: 2.1.1 Build 3)  -->
  <defs>
    <style>
      .st0 {
        fill: #1467b0;
      }

      .st1 {
        fill: #090909;
      }

      .st2 {
        fill: #060505;
      }
    </style>
  </defs>
  <path class="st2" d="M48.14,81.71c.83.3,1.59-.05,2.52.01,3.33.21,6.87,3.18,7.18,6.57.23,2.58-.99,5.01,2.23,6.06,1.09.35,6.64.62,7.3-.18.62-.75-.09-8.69.07-10.24.38-1.41,3.69-1.34,4.06-.2v14.16c-1.04,1.16-2.74.42-4.05.39-2.71-.05-7.66.79-9.8-.71-.45-.32-1.23-1.44-1.73-1.44-.19,0-2.21,1.43-2.72,1.66-2.44,1.07-10.84.43-14.07.49-1.69.03-4.33,1.14-4.55-1.3-.7-7.63.55-16.32,0-24.06-.08-1.66,1.6-1.72,2.85-1.42,1.91.46,1.02,2.53.99,3.84-.11,5.35-.47,12.62,0,17.8.12,1.27.48,1.41,1.72,1.51,2.37.2,9.62.27,11.5-.85,4.22-2.51,2.54-8.05-2.42-8.44-1.25-.1-4.7.82-5.42-.43-1.49-2.57,2.12-6.88,3.49-9.02.59-.92.9-2.31,1.98-2.87,1.67-.87,3.44.72,2.79,2.59-.21.62-2.35,3.05-2.92,3.95-.22.35-1.22,1.82-1.01,2.11Z"/>
  <path class="st2" d="M83.94,94.21c2.79.68,7.92,1.25,8.27-2.69.62-7.1-.05-15.93,0-23.26,0-.81-.38-1.62.18-2.38.43-.59,3.07-.44,3.6.12.64.68.06,2.81.04,3.68-.12,6.13-.41,13.59,0,19.62.36,5.24,4.06,5.66,8.61,5.36,1.17-.08,2.16.03,2.32-1.32.21-1.8.04-4.58,0-6.48-.02-1.06-.82-3.54.74-3.89.84-.19,2.44-.19,2.98.57.69.96.12,1.95.1,2.92-.08,3.75.07,7.5.12,11.24-.19.63-.86.73-1.43.8-3.07-.48-9.34.85-11.9-.64-.6-.35-1.91-2.19-2.26-2.14-1.04.92-1.7,2.32-3.24,2.56-2.63.41-8.03.45-10.71.22-1.13-.09-1.22-.19-1.31-1.31-.82-9.72.75-20.47-.14-30.27.04-1.52,1.42-1.53,2.66-1.35,1.94.28,1.32,1.82,1.32,3.1.04,8.51-.03,17.03.04,25.54Z"/>
  <path class="st0" d="M154.66,80.7c3-.49,5.73-.01,8.15,1.85,6.81,5.25,2.66,15.52-5.45,16.31-9.33.9-14.75-9.5-18.91-16.21-.98-1.58-3.28-3.44-.21-4.72,3.26-1.36,3.19,1.14,4.41,3.35,2.17,3.92,5.68,9.96,9.52,12.31,2.69,1.65,5.3,1.98,7.85-.16,4.08-3.43,1.1-8.89-3.74-9.21-1.08-.07-2.48.57-3.5.27-.7-.21-2.89-2.73-2.97-3.51-.11-1.13,1.74-2.26,2.53-3.11,1.41-1.52,2.7-3.17,3.99-4.79,1.97-1.13,3.82.43,3.27,2.56-1.48,1.55-2.94,3.18-4.64,4.45l-.3.61Z"/>
  <path class="st0" d="M140.72,121.12c-.47-.12-.34.11-.46.26-.49.57-1.87,2.54-2.51,2.73-1.54.45-4.1-.76-5.37-.53-.39.07-1.91,1.41-2.51,1.75-4.1,2.33-13.45,3.32-17.85,1.75-2.82-1-3.09-2.64-2.81-5.43.05-.52.71-3.47,1.09-3.56.84-.2.25,1.96.32,2.51.16,1.37.97,1.87,2.16,2.29,4,1.39,17.79.92,20.35-2.99.22-.34.63-1.79,1.02-1.81.8-.04-.14,3.09-.51,3.43,1.8-.2,6.04-.46,6.63-2.57,1-3.62-.45-7,1.42-11.1.17-.38,1.27-2.72,1.26-1.17-.03,3.7-.51,7.59-.22,11.32.19,2.44,1.06,3.5,3.65,2.72-1.78-2.82,2.21-9.63,5.47-7.38,2.09,1.44,1.08,4.89-.21,6.58,2.17-.35,4.87-1.07,4.87-3.74,0-2.2-.4-4.11,0-6.45.14-.81,1.54-5.65,2.11-5.77.95-.21.12,2.71.1,3.13-.36,6.42,1.31,13.75-7.03,15.4-.63.12-1.28-.04-1.88.15-.7.22-2.03,1.63-3.02,2.03-3.15,1.28-5.87-.07-6.07-3.54ZM149.15,115.3c-3.48.72-.55,6.32,2.18,2.79,1.19-1.54-.48-3.14-2.18-2.79Z"/>
  <path class="st0" d="M164.09,61.99c1.45,1.35,4.87,5.26,5.71,6.92.38.75.86,2.57-.35,2.6-.87.02-1.52-1.27-2.07-1.8-5.84-5.54-9.37-9.6-17.68-11.83-13.47-3.61-26.95.95-35.46,11.81-.67.85-1.04,2.58-2.69,2.09-2.31-.68,1.59-5.28,2.29-6.13,12.62-15.3,35.58-17.36,50.25-3.66Z"/>
  <path class="st0" d="M93.01,102.33c.18.18-.38,2.61-.41,3.12-.21,3.26.53,4.84-.55,8.35-.18.58-1.01,2.18-1.03,2.41-.04.46,1.7,1.64,1.37,3.39-.04.21-1.94,3.24-2.1,3.36-.61.46-1.62-.5-2.46-.61-1.91-.23-4.04,1.57-5.84,2.21-1.46.52-3.19.45-4.33.92-.75.31-1.65,1.35-2.51,1.74-2.98,1.37-5.79.27-6.3-3.07-.83,1.25-1.24,3.68-2.54,4.54-.54.35-4.97,1.56-5.24,1.32-.09-.35.15-.4.3-.61,3.11-4.06,5.63-3.82,7.93-9.65.25-.65,1.28-4.35,1.47-4.49.15-.11.52.1.57.32.1.47-.55,3.19-.57,4.02-.08,2.69.7,4.75,3.84,3.73-1-2.05-.16-4.51,1.22-6.16,2.69-3.23,6.2-1.23,5.23,2.8-.24,1.01-.82,1.64-1.19,2.55.16.15,1.75-.33,2.08-.45,2.92-1.06,6.55-3.93,7.8-6.75,1.17-2.63.35-5.84,1.18-8.92.14-.51,1.2-3.67,1.37-3.88.18-.22.6-.31.7-.21ZM77.39,117.93c-2.65.54-1.74,4.36.54,3.99.4-.06,1.55-.97,1.74-1.3.87-1.52-.64-3.03-2.29-2.69Z"/>
  <path class="st0" d="M60.87,110c.56.73-1.77,4.29-2.76,4.4-.49.05-1.03-.53-1.75-.32s-2.42,2.84-3.75,2.83c-.32,6.94-5.13,16.6-13.27,15.93-7.58-.62-6.47-11.22-3.3-15.83.37-.54,1.27-1.48,1.14-.28-.11,1-1.21,2.93-1.48,4.18-2.45,11.3,13.99,8.28,14.86-.7.26-2.69-1.46-6.11,1.12-7.97.52,1.57,1.35,1.66,2.94,1.32,1.46-.31,1.66-1.6,2.4-1.85.8-.26,1.76.43,2.44.02.18-.11.68-1.04.89-1.33.07-.09.23-.76.52-.38Z"/>
  <path class="st0" d="M136.42,90.05c.51.48.82,3.52.82,4.29,0,6.76-5.41,11.13-11.99,10.62-1.52-.12-2.67-.34-2.73-2.14-.11-3.16,1.98-1.9,3.95-1.95,3.81-.1,7.01-2.98,6.77-6.93-.06-1.01-.76-2.52-.18-3.42.46-.72,2.77-1.03,3.36-.47Z"/>
  <path class="st0" d="M122.67,98.84c-.75.71-3.96.26-3.98-1.27l-.02-18.78c-.18-1.72,3.6-1.43,3.84-.19.14,4.11.1,8.22.2,12.33.05,1.87.2,3.75.2,5.66,0,.72.47,1.59-.24,2.26Z"/>
  <path class="st0" d="M163.15,112.93c.12-1.03,1.37-5.16,2.02-5.86.19-.2.28-.37.61-.3.16.86-.18,1.71-.21,2.52-.17,4.72.68,10.39-1.17,14.8-.23.55-.58,1.71-1.25,1.48v-12.63Z"/>
  <path class="st0" d="M97.05,125.56l.22-13.21c.48-1.58.85-3.73,1.76-5.11.45-.68.88-.57.84.21-.04.86-.36,1.97-.4,2.85-.21,4.46.72,9.7-1.11,13.85-.26.59-.53,1.58-1.31,1.42Z"/>
  <path class="st0" d="M77.27,112.24c-.31.54-1.67,2.38-2.16,2.42-.42.04-2.73-1.69-2.69-2.1.03-.31,2.22-2.87,2.53-2.93.63.02,2.14,1.64,2.57,1.56.58-.1,1.77-2.44,2.42-2.38.25.02,2.71,1.75,2.75,1.91.07.29-2.24,3-2.55,3.08-.77.2-2.41-1.89-2.87-1.57Z"/>
  <path class="st0" d="M151.56,106.19c.29-.06,2.84,1.71,2.89,1.91.07.28-2.09,2.87-2.42,3.02-.88.4-2.18-1.52-2.72-1.47-.51.04-1.83,2.36-2.42,2.37-.53.01-2.47-1.56-2.71-2.08.03-.19,2.23-2.8,2.41-2.88.69-.29,2.21,1.59,2.69,1.5.68-.27,1.78-2.28,2.28-2.37Z"/>
  <path class="st0" d="M66.93,107.48c.14.45,1.39.59,1.82.51,0-.75-.04-1.48.09-2.23.04-.24.7-2.29,1.12-1.81-.13,1.75.22,3.97-.83,5.53-.63.93-2.5,1.18-2.9-.07-2.55,3.19-3.69.54-3.04-2.44.1-.46.31-1.87.92-1.5-.2,1.16-.82,3.44,1.07,2.88.87-.26.93-2.41,1.31-3.35.12-.31-.12-.54.46-.44.14.77-.2,2.28,0,2.93Z"/>
  <path class="st2" d="M107.02,107.52c-.62-.68-.55-2.08-.33-2.93.58-2.22,4.62-1.81,4.92.87.33,2.9-3.02,3.8-4.59,2.06Z"/>
  <path class="st0" d="M129.34,78.12c2.1-.47,3.72.44,3.71,2.68,0,2.54-3.51,3.04-4.76,1.1-.68-1.04-.31-3.49,1.05-3.79Z"/>
  <path class="st2" d="M68.9,74.28c.99-.19,1.98.17,2.55,1,1.54,2.24-.91,4.06-3.12,2.92-1.95-1.01-1.43-3.53.57-3.91Z"/>
  <path class="st1" d="M200.08,53.33c.1-.09,1.09.24,1.26-.3.24-.73-.16-5.03.03-5.21.07-.06.65.09.83-.18.23-.32-.02-1.58.08-1.67.07-.06.67.07.74,0s-.07-.85,0-.92,1.78-.07,1.84,0-.07.86,0,.92.67-.07.74,0c.1.09-.15,1.34.08,1.67s1.21.11,1.21.17v5.34c0,.06,1.29-.06,1.29,0v7.55c0,.09,1.84-.09,1.84,0v7.82s.26.28.28.28h16.93s.28-.26.28-.28v-7.64c.41-.05,2.39.17,2.39-.28v-7.27c0-.06,1.1.06,1.1,0v-5.52c0-.06.98.16,1.21-.17s-.02-1.58.08-1.67c.07-.07.61.09.73-.02.08-.08-.1-.51.11-.55.18-.04,1.68-.05,1.74.01.07.08-.1.79.02.91.07.08.5-.1.54.11.21,1.06-.65,1.57,1.09,1.37v5.25c0,.4,1.1.22,1.1.28v7.55h2.58v25.95h6.07v-3.31h1.47v3.68s.92-.05.92,0v22.82s.68-.09.93.08c.22.15.26,2.41.17,2.5-.06.05-.72-.04-.92,0v18.86s-.26.28-.28.28h-58.88s-.28-.26-.28-.28v-18.68s-.74.04-.74,0v-2.58c0-.05.92.07.92-.28v-22.73s.92.05.92,0v-3.31h1.1v3.31h6.26v-26.32h2.21c.21-.93-.27-7.29,0-7.55Z"/>
  <path class="st0" d="M119.16,130.04c.31-.06,2.62,1.59,2.62,2.03,0,.19-2.28,2.77-2.48,2.81-.36.07-2.62-1.58-2.62-2.03,0-.21,2.23-2.76,2.48-2.81Z"/>
  <g>
    <path class="st1" d="M149.61-139.37c.47.17.9-.03,1.42,0,1.88.12,3.87,1.79,4.04,3.7.13,1.45-.56,2.82,1.26,3.41.61.2,3.74.35,4.11-.1.35-.42-.05-4.9.04-5.76.21-.79,2.08-.76,2.29-.11v7.97c-.59.65-1.54.23-2.28.22-1.53-.03-4.31.45-5.52-.4-.25-.18-.69-.81-.97-.81-.11,0-1.24.81-1.53.93-1.37.6-6.1.24-7.92.28-.95.02-2.44.64-2.56-.73-.39-4.3.31-9.19,0-13.55-.04-.93.9-.97,1.61-.8,1.08.26.57,1.43.56,2.16-.06,3.01-.27,7.11,0,10.02.07.72.27.79.97.85,1.34.11,5.42.15,6.48-.48,2.37-1.41,1.43-4.54-1.36-4.75-.71-.06-2.64.46-3.05-.24-.84-1.45,1.19-3.88,1.97-5.08.33-.52.51-1.3,1.12-1.62.94-.49,1.94.4,1.57,1.46-.12.35-1.33,1.72-1.64,2.23-.12.2-.68,1.03-.57,1.19Z"/>
    <path class="st1" d="M169.77-132.33c1.57.38,4.46.7,4.66-1.52.35-4-.03-8.97,0-13.1,0-.46-.21-.91.1-1.34.24-.33,1.73-.25,2.03.07.36.38.03,1.58.03,2.07-.06,3.45-.23,7.65,0,11.05.2,2.95,2.28,3.19,4.85,3.02.66-.04,1.22.01,1.31-.74.12-1.02.02-2.58,0-3.65-.01-.59-.46-1.99.42-2.19.47-.11,1.37-.11,1.68.32.39.54.07,1.1.05,1.64-.04,2.11.04,4.22.07,6.33-.11.35-.48.41-.8.45-1.73-.27-5.26.48-6.7-.36-.34-.2-1.08-1.23-1.27-1.2-.59.52-.96,1.31-1.83,1.44-1.48.23-4.52.25-6.03.13-.63-.05-.69-.11-.74-.74-.46-5.47.42-11.53-.08-17.04.02-.86.8-.86,1.5-.76,1.09.16.74,1.02.75,1.75.02,4.79-.02,9.59.02,14.38Z"/>
    <path class="st1" d="M209.59-139.94c1.69-.28,3.22,0,4.59,1.04,3.84,2.96,1.5,8.74-3.07,9.18-5.25.51-8.31-5.35-10.65-9.13-.55-.89-1.84-1.94-.12-2.66,1.84-.77,1.8.64,2.48,1.89,1.22,2.21,3.2,5.61,5.36,6.93,1.52.93,2.99,1.12,4.42-.09,2.3-1.93.62-5.01-2.1-5.19-.61-.04-1.4.32-1.97.15-.4-.12-1.63-1.54-1.67-1.98-.06-.63.98-1.27,1.42-1.75.79-.86,1.52-1.79,2.25-2.7,1.11-.63,2.15.24,1.84,1.44-.83.87-1.66,1.79-2.62,2.51l-.17.34Z"/>
    <path class="st1" d="M201.74-117.18c-.26-.07-.19.06-.26.14-.28.32-1.05,1.43-1.41,1.54-.87.26-2.31-.43-3.02-.3-.22.04-1.08.79-1.42.98-2.31,1.31-7.57,1.87-10.05.99-1.59-.56-1.74-1.49-1.58-3.06.03-.29.4-1.96.61-2,.47-.11.14,1.11.18,1.41.09.77.54,1.05,1.22,1.29,2.25.78,10.02.52,11.46-1.68.13-.19.35-1.01.57-1.02.45-.02-.08,1.74-.28,1.93,1.01-.11,3.4-.26,3.73-1.45.56-2.04-.26-3.94.8-6.25.1-.22.71-1.53.71-.66-.01,2.09-.29,4.27-.12,6.37.11,1.37.6,1.97,2.05,1.53-1-1.59,1.24-5.42,3.08-4.16,1.17.81.61,2.75-.12,3.7,1.22-.19,2.74-.6,2.74-2.1,0-1.24-.23-2.31,0-3.63.08-.46.87-3.18,1.19-3.25.54-.12.07,1.52.06,1.76-.2,3.61.74,7.74-3.96,8.67-.35.07-.72-.02-1.06.08-.39.12-1.14.92-1.7,1.15-1.77.72-3.3-.04-3.42-1.99ZM206.49-120.45c-1.96.4-.31,3.56,1.23,1.57.67-.87-.27-1.77-1.23-1.57Z"/>
    <path class="st1" d="M214.9-150.47c.82.76,2.74,2.96,3.21,3.9.22.43.48,1.45-.2,1.46-.49.01-.85-.72-1.16-1.01-3.29-3.12-5.28-5.41-9.96-6.66-7.59-2.03-15.17.53-19.97,6.65-.37.48-.58,1.45-1.51,1.18-1.3-.38.89-2.97,1.29-3.45,7.11-8.62,20.03-9.78,28.3-2.06Z"/>
    <path class="st1" d="M174.87-127.76c.1.1-.21,1.47-.23,1.76-.12,1.83.3,2.73-.31,4.7-.1.33-.57,1.23-.58,1.36-.02.26.96.92.77,1.91-.02.12-1.09,1.82-1.18,1.89-.34.26-.91-.28-1.38-.34-1.08-.13-2.28.88-3.29,1.25-.82.29-1.8.25-2.44.52-.42.18-.93.76-1.41.98-1.68.77-3.26.15-3.55-1.73-.47.7-.7,2.07-1.43,2.55-.3.2-2.8.88-2.95.74-.05-.2.08-.23.17-.34,1.75-2.28,3.17-2.15,4.47-5.43.14-.36.72-2.45.83-2.53.09-.06.29.06.32.18.06.27-.31,1.8-.32,2.27-.04,1.52.4,2.68,2.16,2.1-.56-1.16-.09-2.54.69-3.47,1.52-1.82,3.49-.69,2.94,1.58-.14.57-.46.92-.67,1.43.09.08.99-.19,1.17-.25,1.65-.6,3.69-2.21,4.39-3.8.66-1.48.2-3.29.67-5.02.08-.29.68-2.07.77-2.19.1-.12.34-.17.39-.12ZM166.08-118.97c-1.49.31-.98,2.45.31,2.25.22-.04.87-.54.98-.73.49-.85-.36-1.71-1.29-1.52Z"/>
    <path class="st1" d="M156.77-123.44c.32.41-1,2.42-1.55,2.48-.27.03-.58-.3-.98-.18s-1.36,1.6-2.11,1.59c-.18,3.91-2.89,9.35-7.47,8.97-4.27-.35-3.64-6.32-1.86-8.91.21-.3.72-.83.64-.16-.06.56-.68,1.65-.84,2.35-1.38,6.36,7.88,4.66,8.37-.39.15-1.51-.82-3.44.63-4.49.3.88.76.93,1.66.74.82-.18.94-.9,1.35-1.04.45-.15.99.24,1.37,0,.1-.06.38-.59.5-.75.04-.05.13-.43.29-.21Z"/>
    <path class="st1" d="M199.32-134.67c.29.27.46,1.98.46,2.42,0,3.81-3.05,6.27-6.75,5.98-.85-.07-1.5-.19-1.54-1.2-.06-1.78,1.11-1.07,2.22-1.1,2.15-.05,3.95-1.68,3.81-3.9-.03-.57-.43-1.42-.1-1.92.26-.41,1.56-.58,1.89-.27Z"/>
    <path class="st1" d="M191.58-129.73c-.42.4-2.23.15-2.24-.72v-10.58c-.11-.97,2.02-.81,2.15-.11.08,2.31.05,4.63.11,6.94.03,1.05.11,2.11.11,3.19,0,.41.26.9-.14,1.27Z"/>
    <path class="st1" d="M214.37-121.79c.07-.58.77-2.91,1.14-3.3.11-.11.16-.21.34-.17.09.49-.1.96-.12,1.42-.09,2.66.38,5.85-.66,8.33-.13.31-.33.96-.7.83v-7.11Z"/>
    <path class="st1" d="M177.15-114.68l.13-7.44c.27-.89.48-2.1.99-2.88.25-.38.49-.32.47.12-.02.48-.2,1.11-.23,1.6-.12,2.51.41,5.46-.62,7.8-.15.33-.3.89-.74.8Z"/>
    <path class="st1" d="M166.01-122.18c-.17.3-.94,1.34-1.21,1.36-.24.02-1.53-.95-1.51-1.18.02-.17,1.25-1.62,1.42-1.65.36,0,1.2.92,1.45.88.33-.06,1-1.37,1.36-1.34.14.01,1.53.99,1.55,1.08.04.16-1.26,1.69-1.44,1.74-.44.11-1.36-1.06-1.61-.89Z"/>
    <path class="st1" d="M207.85-125.58c.16-.03,1.6.96,1.63,1.08.04.16-1.18,1.62-1.36,1.7-.5.23-1.23-.85-1.53-.83-.29.02-1.03,1.33-1.36,1.34-.3,0-1.39-.88-1.52-1.17.02-.1,1.25-1.58,1.35-1.62.39-.16,1.25.89,1.52.85.38-.15,1-1.28,1.29-1.34Z"/>
    <path class="st1" d="M160.19-124.86c.08.26.78.33,1.02.29,0-.42-.03-.84.05-1.26.02-.14.4-1.29.63-1.02-.07.98.13,2.24-.47,3.11-.35.52-1.41.67-1.64-.04-1.44,1.8-2.08.3-1.71-1.37.06-.26.18-1.05.52-.85-.11.65-.46,1.94.6,1.62.49-.15.52-1.36.74-1.89.07-.17-.07-.31.26-.25.08.44-.11,1.28,0,1.65Z"/>
    <path class="st1" d="M182.76-124.84c-.35-.38-.31-1.17-.19-1.65.33-1.25,2.6-1.02,2.77.49.18,1.63-1.7,2.14-2.58,1.16Z"/>
    <path class="st1" d="M195.33-141.39c1.18-.26,2.09.25,2.09,1.51,0,1.43-1.98,1.71-2.68.62-.38-.59-.18-1.96.59-2.13Z"/>
    <path class="st1" d="M161.3-143.56c.56-.11,1.12.1,1.44.56.87,1.26-.51,2.29-1.76,1.64-1.1-.57-.8-1.99.32-2.2Z"/>
    <path class="st1" d="M235.17-155.35c.06-.05.61.13.71-.17.14-.41-.09-2.83.02-2.94.04-.04.36.05.47-.1.13-.18-.01-.89.04-.94.04-.04.38.04.42,0s-.04-.48,0-.52,1-.04,1.04,0-.04.48,0,.52.38-.04.42,0c.05.05-.09.75.04.94s.68.06.68.1v3.01s.73-.04.73,0v4.25c0,.05,1.04-.05,1.04,0v4.4s.14.16.16.16h9.53s.16-.14.16-.16v-4.3c.23-.03,1.35.1,1.35-.16v-4.09s.62.03.62,0v-3.11s.55.09.68-.1,0-.89.04-.94c.04-.04.35.05.41,0,.04-.04-.05-.28.06-.31.1-.02.95-.03.98,0,.04.04-.06.44.01.51.04.04.28-.06.31.06.12.59-.37.89.61.77v2.95c0,.22.62.12.62.16v4.25h1.45v14.61h3.42v-1.87h.83v2.07s.52-.03.52,0v12.85s.39-.05.52.04c.13.09.15,1.36.1,1.41-.03.03-.4-.02-.52,0v10.62s-.14.16-.16.16h-33.16s-.16-.14-.16-.16v-10.52s-.41.02-.41,0v-1.45s.52.04.52-.16v-12.8s.52.03.52,0v-1.87h.62v1.87h3.52v-14.82h1.24c.12-.53-.15-4.1,0-4.25Z"/>
    <path class="st1" d="M189.6-112.15c.17-.03,1.48.89,1.48,1.14,0,.11-1.28,1.56-1.4,1.58-.2.04-1.48-.89-1.48-1.14,0-.12,1.26-1.55,1.4-1.58Z"/>
  </g>
</svg>